<svg width="87" height="90" viewBox="0 0 87 90" xmlns="http://www.w3.org/2000/svg">
<path fill-rule="evenodd" clip-rule="evenodd" d="M41.6524 0.683236C44.6474 -0.239653 47.8745 -0.161511 51.9397 0.523376C52.3619 0.59451 52.7353 0.838712 52.9696 1.19705C54.9966 4.29631 56.6002 6.43534 58.4172 8.09536C60.2093 9.73262 62.2733 10.9608 65.2873 12.1203C65.4704 12.1907 65.6383 12.2956 65.7819 12.4292C68.9325 15.3607 70.939 18.1195 71.8618 21.5804C75.1189 22.6899 77.7507 23.8655 79.8223 25.7479C82.1037 27.8209 83.5572 30.6076 84.6442 34.651C84.7393 35.005 84.7047 35.3814 84.5465 35.7121L80.8561 43.4285C82.6681 44.8955 84.0834 46.3626 85.0906 48.2256C86.2732 50.413 86.8118 52.9924 86.9978 56.4638C87.0279 57.0262 86.7477 57.5601 86.2675 57.8547C83.0969 59.8 80.9042 62.1624 78.9045 64.3168L78.9041 64.3172C78.3217 64.9447 77.7557 65.5544 77.1867 66.1311C75.9792 67.3549 74.6683 68.5132 73.1345 69.0902C71.6296 69.6564 70.0549 69.6153 68.3681 68.8907C68.0478 69.0915 67.7189 69.2937 67.3816 69.4979C68.0585 71.6191 68.1638 73.7015 66.9202 75.9416C65.5601 78.3914 62.675 80.8318 57.9367 83.9093C54.5769 86.4131 51.5113 88.2814 48.409 89.0763C45.2081 89.8964 42.0859 89.5463 38.7145 87.8605C32.5609 84.7836 29.5835 83.2978 25.0966 81.802C22.2631 80.8575 20.2628 78.5416 19.0906 75.8776C18.7317 75.062 18.4434 74.1998 18.2281 73.3112C14.9907 72.9316 12.3614 72.4053 9.93929 71.4046C7.23765 70.2883 4.8926 68.624 2.25619 66.1C1.82794 65.69 1.67398 65.0701 1.86066 64.5074C2.63669 62.1682 2.10288 60.18 1.48995 57.8972C1.41721 57.6262 1.34334 57.3511 1.27043 57.0708C0.94412 55.8164 0.632022 54.395 0.789368 52.931C0.915902 51.7537 1.33533 50.6202 2.14656 49.5328C0.766565 47.2958 0.107079 44.5338 0.0120935 41.1542C-0.0978418 37.2427 0.544803 32.3758 1.81495 26.291C1.88235 25.9681 2.05195 25.6755 2.29862 25.4565C6.95929 21.3188 10.399 18.6301 14.9698 16.6013C15.3957 13.7973 16.0338 11.5926 16.9972 9.50589C18.0474 7.23137 19.4573 5.15805 21.27 2.66902C21.5712 2.2554 22.0587 2.01902 22.57 2.03862C27.8249 2.24006 31.651 2.70296 34.3468 5.21219C36.7817 2.98709 39.0606 1.48188 41.6524 0.683236ZM75.0007 63.9743C73.9411 65.0482 73.0925 65.7482 72.301 66.1123C73.411 65.192 74.3328 64.2519 75.0615 63.2423C76.9321 60.6506 77.4214 57.7724 77.0104 54.0732C76.9566 53.5891 76.8955 53.1263 76.8281 52.6822C76.8526 52.6379 76.875 52.5919 76.8954 52.5444L79.5537 46.3418C80.8499 47.462 81.7452 48.495 82.3893 49.6862C83.1815 51.1515 83.6606 52.9826 83.8736 55.7403C80.7096 57.8403 78.3742 60.3624 76.5042 62.3818L76.5041 62.3818L76.5041 62.3819C75.9675 62.9614 75.4692 63.4995 75.0007 63.9743ZM77.5276 43.2736L75.6547 47.6435C75.4488 46.9776 75.2368 46.3415 75.0276 45.7138L75.0273 45.7131L75.0217 45.6961C74.2594 43.4094 73.5366 41.2351 73.1717 37.951C72.9986 36.393 72.6395 34.9755 72.0868 33.7257C72.7271 30.0445 72.7776 27.4469 72.502 25.0735C74.7867 25.9454 76.4514 26.8342 77.7572 28.0207C79.3618 29.4787 80.5542 31.5106 81.528 34.906L77.5537 43.216C77.5446 43.235 77.5359 43.2542 77.5276 43.2736ZM69.0617 23.0781C69.5085 25.2301 69.7464 27.2653 69.4744 30.1808C69.181 29.9343 68.8702 29.705 68.5417 29.4934C66.3157 28.0596 63.4883 27.5806 60.254 27.8933C61.7927 25.0752 62.2564 22.5144 61.5124 20.2953C60.5996 17.5727 58.0795 15.9769 55.1776 15.1478C53.599 14.6968 52.09 14.3794 50.5938 14.0647C46.6375 13.2326 42.7717 12.4195 37.9498 9.20483C37.5452 8.93505 37.1268 8.70327 36.6972 8.50773C36.552 8.20801 36.4003 7.91957 36.2412 7.64228C38.5622 5.49314 40.4967 4.25272 42.5567 3.61797C44.7495 2.94227 47.25 2.90165 50.7732 3.44555C52.6743 6.31488 54.3607 8.54885 56.3459 10.3626C58.4233 12.2605 60.7653 13.6429 63.9025 14.8767C66.9076 17.7155 68.4462 20.1137 69.0617 23.0781ZM35.1572 11.1958C35.0758 11.1735 34.9963 11.1445 34.9197 11.1092C32.2947 10.2139 28.7715 11.0185 25.5886 13.5951C22.2541 16.2945 19.6101 20.7503 19.4191 26.3305C21.0977 25.5919 22.8994 24.9668 24.8024 24.4547C29.1106 20.8598 35.143 19.8126 40.379 20.8776C43.0828 21.4275 45.6751 22.5682 47.7617 24.2824C51.2846 23.5392 54.3617 24.6985 56.9522 26.6418C57.0648 26.7263 57.1767 26.8123 57.2878 26.8999C58.8415 24.2692 58.9979 22.4561 58.6008 21.2714C58.155 19.9417 56.8062 18.8069 54.334 18.1006C53.0676 17.7387 51.7418 17.4602 50.3512 17.1681C46.257 16.308 41.6013 15.33 36.2464 11.76C35.9072 11.5338 35.5428 11.3457 35.1572 11.1958ZM23.2708 5.14211C28.3014 5.37947 30.8157 5.96102 32.4793 7.6805C29.4475 7.75175 26.2829 9.0821 23.6564 11.2083C22.5417 12.1107 21.4968 13.1728 20.5649 14.377C19.7053 14.6152 18.9949 14.8693 18.3593 15.1266C18.7193 13.4702 19.1849 12.0936 19.7853 10.7931C20.6154 8.99523 21.7255 7.2913 23.2708 5.14211ZM16.9577 19.0896C17.3695 18.9187 17.7266 18.761 18.056 18.6128C16.8711 21.3261 16.2161 24.4534 16.3556 27.8867C14.2065 29.1427 12.3342 30.6282 10.8014 32.3443C7.39126 36.1623 5.74825 41.0298 6.39871 46.7393C6.56096 48.1635 6.90073 49.3908 7.35878 50.4872C6.53585 50.0299 5.91862 49.4862 5.29604 48.6903C3.95438 46.9753 3.18109 44.6011 3.08178 41.0679C2.98476 37.6159 3.53462 33.1824 4.7181 27.4158C9.3736 23.3048 12.5752 20.9081 16.9577 19.0896ZM12.0128 52.3247C12.1545 52.4502 12.2709 52.6004 12.3572 52.7662C12.666 53.1542 13.0012 53.5579 13.3525 53.981C14.4941 55.3556 15.8049 56.9342 16.925 58.8383C16.9471 58.8759 16.9676 58.9145 16.9865 58.9539C19.1067 63.3831 20.7162 66.5206 22.7856 68.8213C24.7848 71.0438 27.2755 72.5446 31.3019 73.4753C35.1504 74.365 37.5787 73.4128 39.0329 72.3715C39.1114 72.3153 39.1875 72.2585 39.2612 72.2014C36.6546 71.8696 34.0784 70.9509 31.6447 69.3428C28.2802 67.1197 25.8693 64.5714 24.3679 61.4063C22.9866 58.4945 22.4293 55.1744 22.4857 51.3082C18.3481 48.9123 16.3764 45.1264 16.476 40.7402C16.5602 37.0303 18.1164 33.0015 20.832 29.0643C17.6209 30.4528 15.0053 32.2477 13.0917 34.39C10.2756 37.5429 8.89663 41.5356 9.44987 46.3917C9.73462 48.8911 10.6945 50.598 12.0128 52.3247ZM4.21008 52.0066C5.78176 53.3882 7.58474 54.0379 10.0422 54.7902C10.4158 55.259 10.7878 55.7063 11.1565 56.1497C12.2246 57.4341 13.2661 58.6865 14.2454 60.34C15.5006 62.9612 16.6472 65.2879 17.8889 67.3085C17.769 68.2479 17.733 69.2063 17.7781 70.1612C15.0638 69.8073 12.9806 69.3384 11.1119 68.5664C9.07409 67.7244 7.21143 66.4878 5.04622 64.506C5.70301 61.6334 5.00447 59.0878 4.45418 57.0825L4.45403 57.082L4.45387 57.0814C4.37943 56.8101 4.30771 56.5487 4.24243 56.2977C3.92436 55.075 3.74974 54.124 3.84269 53.2592C3.88636 52.8528 3.99266 52.4383 4.21008 52.0066ZM61.246 30.8961C62.1181 31.9635 62.9329 33.0773 63.694 34.1743C69.8694 43.0747 67.6361 53.1128 61.3481 61.3184C56.8335 67.2098 50.2628 71.5765 43.3794 72.2532C43.2992 72.372 43.2082 72.5007 43.106 72.637C42.6224 73.2822 41.8779 74.1114 40.8207 74.8683C40.761 74.9111 40.7003 74.9536 40.6387 74.9958C42.5246 76.2379 44.0791 77.1099 45.5774 77.4915C47.3681 77.9476 49.1865 77.7205 51.5601 76.0251C52.0398 75.6824 52.4978 75.3545 52.9378 75.0394L52.9388 75.0386L52.9486 75.0316L52.9548 75.0271C57.4075 71.8382 60.0236 69.9647 64.7584 67.4867C68.788 65.1162 71.2037 63.34 72.5714 61.445C73.86 59.6598 74.3149 57.6227 73.9582 54.4123C73.5933 51.1281 72.8706 48.9539 72.1083 46.6672L72.1027 46.6502C71.3311 44.3356 70.5214 41.9065 70.1196 38.2901C69.7707 35.1502 68.5903 33.1774 66.8788 32.0751C65.5327 31.2081 63.6758 30.7604 61.246 30.8961ZM37.3694 76.494C35.5408 76.9854 33.3015 77.0894 30.6102 76.4673C26.3548 75.4837 23.3804 73.858 20.9788 71.3847C21.1479 72.528 21.4592 73.6357 21.9014 74.6408C22.8405 76.7751 24.2951 78.2978 26.0677 78.8887C30.7792 80.4593 33.9399 82.0397 40.0344 85.0871L40.0879 85.1139C42.8581 86.499 45.2245 86.7221 47.6468 86.1014C50.1555 85.4587 52.8357 83.8841 56.1406 81.418C56.1675 81.3979 56.195 81.3787 56.2232 81.3605C60.9938 78.2653 63.2796 76.1724 64.2353 74.451C64.8396 73.3624 64.9511 72.3458 64.6304 71.04C61.0248 73.0259 58.6527 74.7244 54.7275 77.5349L54.7274 77.535L54.7216 77.5391C54.2834 77.8529 53.8258 78.1805 53.345 78.524C50.3445 80.6672 47.6088 81.1779 44.8194 80.4674C42.3341 79.8344 39.9136 78.2437 37.3694 76.494ZM50.3722 27.144C51.5442 28.8978 52.298 30.992 52.4497 33.4185C52.4544 33.4931 52.4537 33.5669 52.4478 33.6393C53.2498 34.5615 53.9605 35.5532 54.5534 36.5916C58.7064 43.8645 57.1267 52.7814 50.2881 57.7853C46.7414 60.3804 42.8165 61.7331 38.7873 61.1553C34.7572 60.5774 30.9121 58.1098 27.4412 53.6506C27.2723 53.4336 27.1708 53.1855 27.1336 52.9315C26.6214 52.8213 26.099 52.6863 25.5605 52.5274C25.6285 55.5338 26.1466 57.9908 27.1425 60.0901C28.3505 62.6368 30.3248 64.79 33.3377 66.7807C36.221 68.6858 39.3074 69.4193 42.3877 69.25C48.4377 68.9175 54.5996 65.0762 58.9106 59.4506C64.7081 51.885 66.3222 43.3493 61.1709 35.9249C59.3144 33.2491 57.3149 30.7528 55.1095 29.0984C53.5898 27.9584 52.0294 27.257 50.3722 27.144ZM26.7558 26.8269C30.227 23.9278 35.2404 22.9662 39.7669 23.8869C43.7498 24.697 47.059 26.8834 48.5523 30.1931C47.3801 29.4029 46.1353 28.7498 44.8593 28.2694C40.9061 26.7809 36.4109 26.8879 32.9796 30.0883C30.377 32.5159 28.4515 35.6973 28.1804 39.1599C27.903 42.7028 29.38 46.2649 33.0511 49.2866C33.2954 49.4877 33.5833 49.6007 33.8762 49.6293C32.5417 50.0283 31.4061 50.2123 30.2854 50.2131C28.6819 50.2143 26.9851 49.8408 24.6561 48.9921C21.027 47.1613 19.4676 44.2681 19.5461 40.8099C19.6281 37.1987 21.514 32.8107 25.2265 28.3554C25.5892 27.9202 25.9805 27.5147 26.3965 27.139C26.5333 27.0535 26.6541 26.9477 26.7558 26.8269ZM31.8373 42.9396C32.4641 39.3299 35.612 36.5851 39.401 36.5851C43.6411 36.5851 47.0783 40.0223 47.0783 44.2623C47.0783 48.5023 43.6411 51.9396 39.401 51.9396C38.6544 51.9396 37.9327 51.833 37.2503 51.6342C37.14 51.7166 37.0168 51.7853 36.8821 51.8372C34.7833 52.6451 32.9635 53.1414 31.1163 53.2576C33.8505 56.2737 36.6034 57.7399 39.2232 58.1155C42.2442 58.5487 45.3775 57.5733 48.4747 55.307C53.9737 51.2833 55.3144 44.1172 51.8867 38.1144C50.1093 35.0017 47.0269 32.3669 43.7772 31.1433C40.5482 29.9275 37.398 30.1666 35.0742 32.334C32.8534 34.4054 31.4363 36.9176 31.2419 39.3996C31.1525 40.541 31.3168 41.7348 31.8373 42.9396ZM34.7947 44.2623C34.7947 41.7183 36.857 39.656 39.401 39.656C41.945 39.656 44.0074 41.7183 44.0074 44.2623C44.0074 46.8063 41.945 48.8687 39.401 48.8687C36.857 48.8687 34.7947 46.8063 34.7947 44.2623Z"/>
</svg>
