<svg width="203" height="26" viewBox="0 0 203 26" fill="none" xmlns="http://www.w3.org/2000/svg">
<path d="M9.232 19.136C9.36 19.152 9.424 19.328 9.424 19.664C9.424 20 9.36 20.168 9.232 20.168C9.152 20.168 8.656 20.136 7.744 20.072C6.848 20.024 6.056 20 5.368 20C4.68 20 3.88 20.024 2.968 20.072C2.056 20.136 1.56 20.168 1.48 20.168C1.352 20.168 1.288 20 1.288 19.664C1.288 19.328 1.352 19.152 1.48 19.136L2.296 18.968C2.392 18.952 2.456 18.936 2.488 18.92C2.52 18.904 2.544 18.88 2.56 18.848C2.576 18.8 2.584 18.736 2.584 18.656V9.608C2.584 9.48 2.568 9.4 2.536 9.368C2.504 9.336 2.424 9.312 2.296 9.296L1.048 9.176C0.92 9.16 0.856 8.992 0.856 8.672C0.856 8.336 0.92 8.16 1.048 8.144L2.584 8V7.928C2.584 6.008 3.376 4.464 4.96 3.296C6.544 2.112 8.488 1.52 10.792 1.52C11.832 1.52 12.736 1.808 13.504 2.384C14.288 2.944 14.68 3.608 14.68 4.376C14.68 4.904 14.472 5.344 14.056 5.696C13.656 6.032 13.176 6.2 12.616 6.2C11.928 6.2 11.36 5.76 10.912 4.88L10.096 3.248C9.808 2.672 9.504 2.384 9.184 2.384C8.48 2.384 8.128 3.256 8.128 5V7.904C8.336 7.904 8.704 7.904 9.232 7.904C9.776 7.888 10.176 7.88 10.432 7.88C10.56 7.88 10.648 7.936 10.696 8.048C10.744 8.144 10.768 8.344 10.768 8.648C10.768 8.952 10.744 9.152 10.696 9.248C10.648 9.328 10.56 9.368 10.432 9.368C9.392 9.368 8.624 9.36 8.128 9.344V18.656C8.128 18.768 8.144 18.84 8.176 18.872C8.208 18.904 8.288 18.936 8.416 18.968L9.232 19.136ZM18.9531 19.136C19.0811 19.152 19.1451 19.328 19.1451 19.664C19.1451 20 19.0811 20.168 18.9531 20.168C18.9371 20.168 18.4171 20.136 17.3931 20.072C16.3691 20.024 15.3611 20 14.3691 20C13.6811 20 12.8811 20.024 11.9691 20.072C11.0571 20.136 10.5611 20.168 10.4811 20.168C10.3531 20.168 10.2891 20 10.2891 19.664C10.2891 19.328 10.3531 19.152 10.4811 19.136L11.2971 18.968C11.3931 18.952 11.4571 18.936 11.4891 18.92C11.5211 18.904 11.5451 18.88 11.5611 18.848C11.5771 18.8 11.5851 18.736 11.5851 18.656V12.32C11.5851 12.208 11.5691 12.136 11.5371 12.104C11.5051 12.072 11.4251 12.04 11.2971 12.008L10.4811 11.864C10.3531 11.848 10.2891 11.696 10.2891 11.408C10.2891 11.152 10.3531 11 10.4811 10.952C12.1131 10.312 14.0331 9.208 16.2411 7.64C16.3051 7.592 16.3691 7.568 16.4331 7.568C16.5291 7.568 16.6571 7.608 16.8171 7.688C16.9771 7.768 17.0571 7.848 17.0571 7.928C17.0571 7.96 17.0411 8.464 17.0091 9.44C16.9771 10.4 16.9611 11.192 16.9611 11.816C17.3291 10.616 17.8331 9.632 18.4731 8.864C19.1131 8.096 19.7851 7.712 20.4891 7.712C21.1771 7.712 21.6971 7.936 22.0491 8.384C22.4011 8.832 22.5771 9.408 22.5771 10.112C22.5771 11.168 22.3211 12 21.8091 12.608C21.3131 13.216 20.7531 13.52 20.1291 13.52C19.7451 13.52 19.3051 13.352 18.8091 13.016C18.2171 12.6 17.7611 12.392 17.4411 12.392C17.2811 12.392 17.1771 12.416 17.1291 12.464V18.656C17.1291 18.848 17.2251 18.952 17.4171 18.968L18.9531 19.136ZM35.7162 16.304C35.2362 17.504 34.3962 18.488 33.1962 19.256C31.9962 20.008 30.7402 20.384 29.4282 20.384C27.6042 20.384 26.0922 19.816 24.8922 18.68C23.6922 17.528 23.0922 16.016 23.0922 14.144C23.0922 12.224 23.7482 10.672 25.0602 9.488C26.3882 8.304 28.1242 7.712 30.2682 7.712C32.0122 7.712 33.3642 8.088 34.3242 8.84C35.3002 9.592 35.7882 10.56 35.7882 11.744C35.7882 12.048 35.7722 12.256 35.7402 12.368C35.7082 12.48 35.6202 12.536 35.4762 12.536C33.1242 12.648 30.8202 12.672 28.5642 12.608C28.9482 13.888 29.5082 14.896 30.2442 15.632C31.0122 16.4 31.8202 16.784 32.6682 16.784C33.4842 16.784 34.2602 16.456 34.9962 15.8C35.1082 15.704 35.2682 15.736 35.4762 15.896C35.6842 16.04 35.7642 16.176 35.7162 16.304ZM28.2522 10.568C28.2522 10.984 28.3082 11.488 28.4202 12.08L29.1882 11.984C30.2602 11.872 30.7962 11.16 30.7962 9.848C30.7962 8.92 30.4442 8.456 29.7402 8.456C29.3402 8.456 28.9882 8.64 28.6842 9.008C28.3962 9.376 28.2522 9.896 28.2522 10.568ZM49.5912 16.304C49.1112 17.504 48.2712 18.488 47.0712 19.256C45.8712 20.008 44.6152 20.384 43.3032 20.384C41.4792 20.384 39.9672 19.816 38.7672 18.68C37.5672 17.528 36.9672 16.016 36.9672 14.144C36.9672 12.224 37.6232 10.672 38.9352 9.488C40.2632 8.304 41.9992 7.712 44.1432 7.712C45.8872 7.712 47.2392 8.088 48.1992 8.84C49.1752 9.592 49.6632 10.56 49.6632 11.744C49.6632 12.048 49.6472 12.256 49.6152 12.368C49.5832 12.48 49.4952 12.536 49.3512 12.536C46.9992 12.648 44.6952 12.672 42.4392 12.608C42.8232 13.888 43.3832 14.896 44.1192 15.632C44.8872 16.4 45.6952 16.784 46.5432 16.784C47.3592 16.784 48.1352 16.456 48.8712 15.8C48.9832 15.704 49.1432 15.736 49.3512 15.896C49.5592 16.04 49.6392 16.176 49.5912 16.304ZM42.1272 10.568C42.1272 10.984 42.1832 11.488 42.2952 12.08L43.0632 11.984C44.1352 11.872 44.6712 11.16 44.6712 9.848C44.6712 8.92 44.3192 8.456 43.6152 8.456C43.2152 8.456 42.8632 8.64 42.5592 9.008C42.2712 9.376 42.1272 9.896 42.1272 10.568ZM60.2022 20.024C59.9302 19 59.7702 18.216 59.7222 17.672C58.9222 19.48 57.6262 20.384 55.8342 20.384C54.5062 20.384 53.3382 19.784 52.3302 18.584C51.3382 17.384 50.8422 15.816 50.8422 13.88C50.8422 11.848 51.4262 10.312 52.5942 9.272C53.7622 8.232 55.3702 7.712 57.4182 7.712C58.1862 7.712 58.8982 7.8 59.5542 7.976V4.424C59.5542 4.232 59.4582 4.12 59.2662 4.088L58.4502 3.896C58.3222 3.88 58.2582 3.712 58.2582 3.392C58.2582 3.088 58.3222 2.928 58.4502 2.912C60.5302 2.528 62.5062 2.08 64.3782 1.568C64.5062 1.536 64.6022 1.52 64.6662 1.52C64.7622 1.52 64.8902 1.56 65.0502 1.64C65.2102 1.72 65.2902 1.8 65.2902 1.88C65.2902 1.944 65.2742 2.192 65.2422 2.624C65.2102 3.056 65.1782 3.656 65.1462 4.424C65.1142 5.192 65.0982 6.008 65.0982 6.872V17.576C65.0982 17.768 65.1942 17.88 65.3862 17.912L66.2022 18.104C66.3302 18.12 66.3942 18.288 66.3942 18.608C66.3942 18.912 66.3302 19.072 66.2022 19.088C64.4742 19.44 62.7542 19.864 61.0422 20.36C60.9302 20.392 60.7702 20.368 60.5622 20.288C60.3542 20.224 60.2342 20.136 60.2022 20.024ZM58.7382 17.072C58.9302 17.264 59.1222 17.36 59.3142 17.36C59.4262 17.36 59.5222 17.328 59.6022 17.264V14.408C59.6022 13.384 59.4102 12.312 59.0262 11.192C58.6582 10.072 58.2662 9.304 57.8502 8.888C57.5782 8.616 57.2902 8.48 56.9862 8.48C56.4262 8.48 56.1462 8.944 56.1462 9.872C56.1462 11.008 56.4182 12.336 56.9622 13.856C57.5062 15.36 58.0982 16.432 58.7382 17.072ZM66.9906 14.144C66.9906 12.144 67.6786 10.576 69.0546 9.44C70.4466 8.288 72.2706 7.712 74.5266 7.712C76.6386 7.712 78.3426 8.272 79.6386 9.392C80.9346 10.512 81.5826 12.032 81.5826 13.952C81.5826 15.952 80.8866 17.528 79.4946 18.68C78.1186 19.816 76.3026 20.384 74.0466 20.384C71.9346 20.384 70.2306 19.824 68.9346 18.704C67.6386 17.584 66.9906 16.064 66.9906 14.144ZM72.2226 10.184C72.2226 11.464 72.5106 13.152 73.0866 15.248C73.6626 17.328 74.2066 18.624 74.7186 19.136C74.9586 19.376 75.2066 19.496 75.4626 19.496C76.0546 19.496 76.3506 18.968 76.3506 17.912C76.3506 16.632 76.0626 14.952 75.4866 12.872C74.9106 10.776 74.3666 9.472 73.8546 8.96C73.6146 8.72 73.3666 8.6 73.1106 8.6C72.5186 8.6 72.2226 9.128 72.2226 10.184ZM106.884 19.136C107.012 19.152 107.076 19.328 107.076 19.664C107.076 20 107.012 20.168 106.884 20.168C106.804 20.168 106.308 20.136 105.396 20.072C104.5 20.024 103.708 20 103.02 20C102.332 20 101.556 20.024 100.692 20.072C99.8435 20.136 99.3795 20.168 99.2995 20.168C99.1715 20.168 99.1075 20 99.1075 19.664C99.1075 19.36 99.1715 19.184 99.2995 19.136L99.9475 18.968C100.076 18.936 100.156 18.904 100.188 18.872C100.22 18.824 100.236 18.744 100.236 18.632V13.904C100.236 12.784 100.076 12 99.7555 11.552C99.4515 11.104 98.8995 10.88 98.0995 10.88C97.8275 10.88 97.6275 10.904 97.4995 10.952C97.5475 11.224 97.5715 11.512 97.5715 11.816V18.632C97.5715 18.744 97.5875 18.824 97.6195 18.872C97.6515 18.904 97.7315 18.936 97.8595 18.968L98.5075 19.136C98.6355 19.184 98.6995 19.36 98.6995 19.664C98.6995 20 98.6355 20.168 98.5075 20.168C98.4275 20.168 97.9635 20.136 97.1155 20.072C96.2675 20.024 95.4995 20 94.8115 20C94.1235 20 93.3475 20.024 92.4835 20.072C91.6355 20.136 91.1715 20.168 91.0915 20.168C90.9635 20.168 90.8995 20 90.8995 19.664C90.8995 19.36 90.9635 19.184 91.0915 19.136L91.7395 18.968C91.8675 18.936 91.9475 18.904 91.9795 18.872C92.0115 18.824 92.0275 18.744 92.0275 18.632V13.904C92.0275 12.784 91.8675 12 91.5475 11.552C91.2435 11.104 90.6915 10.88 89.8915 10.88C89.6515 10.88 89.4755 10.904 89.3635 10.952V18.632C89.3635 18.744 89.3795 18.824 89.4115 18.872C89.4435 18.904 89.5235 18.936 89.6515 18.968L90.2995 19.136C90.4275 19.184 90.4915 19.36 90.4915 19.664C90.4915 20 90.4275 20.168 90.2995 20.168C90.2195 20.168 89.7555 20.136 88.9075 20.072C88.0595 20.024 87.2915 20 86.6035 20C85.9155 20 85.1155 20.024 84.2035 20.072C83.2915 20.136 82.7955 20.168 82.7155 20.168C82.5875 20.168 82.5235 20 82.5235 19.664C82.5235 19.328 82.5875 19.152 82.7155 19.136L83.5315 18.968C83.7235 18.936 83.8195 18.824 83.8195 18.632V12.32C83.8195 12.208 83.8035 12.136 83.7715 12.104C83.7395 12.072 83.6595 12.04 83.5315 12.008L82.7155 11.864C82.5875 11.848 82.5235 11.696 82.5235 11.408C82.5235 11.152 82.5875 11 82.7155 10.952C84.3475 10.312 86.2675 9.208 88.4755 7.64C88.5395 7.592 88.6035 7.568 88.6675 7.568C88.7635 7.568 88.8915 7.608 89.0515 7.688C89.2115 7.768 89.2915 7.848 89.2915 7.928C89.2915 7.976 89.2755 8.288 89.2435 8.864C89.2115 9.44 89.1955 10 89.1955 10.544C89.5475 9.76 90.0995 9.096 90.8515 8.552C91.6195 7.992 92.4995 7.712 93.4915 7.712C94.4995 7.712 95.3395 7.952 96.0115 8.432C96.6995 8.896 97.1635 9.56 97.4035 10.424C97.7715 9.672 98.3395 9.032 99.1075 8.504C99.8755 7.976 100.74 7.712 101.7 7.712C102.964 7.712 103.956 8.072 104.676 8.792C105.412 9.512 105.78 10.52 105.78 11.816V18.632C105.78 18.824 105.876 18.936 106.068 18.968L106.884 19.136ZM121.029 19.136C121.157 19.152 121.221 19.328 121.221 19.664C121.221 20 121.157 20.168 121.029 20.168C120.949 20.168 120.453 20.136 119.541 20.072C118.645 20.024 117.853 20 117.165 20C116.477 20 115.677 20.024 114.765 20.072C113.853 20.136 113.357 20.168 113.277 20.168C113.149 20.168 113.085 20 113.085 19.664C113.085 19.328 113.149 19.152 113.277 19.136L114.093 18.968C114.189 18.952 114.253 18.936 114.285 18.92C114.317 18.904 114.341 18.88 114.357 18.848C114.373 18.8 114.381 18.736 114.381 18.656V9.608C114.381 9.48 114.365 9.4 114.333 9.368C114.301 9.336 114.221 9.312 114.093 9.296L112.845 9.176C112.717 9.16 112.653 8.992 112.653 8.672C112.653 8.336 112.717 8.16 112.845 8.144L114.381 8V7.928C114.381 6.008 115.173 4.464 116.757 3.296C118.341 2.112 120.285 1.52 122.589 1.52C123.629 1.52 124.533 1.808 125.301 2.384C126.085 2.944 126.477 3.608 126.477 4.376C126.477 4.904 126.269 5.344 125.853 5.696C125.453 6.032 124.973 6.2 124.413 6.2C123.725 6.2 123.157 5.76 122.709 4.88L121.893 3.248C121.605 2.672 121.301 2.384 120.981 2.384C120.277 2.384 119.925 3.256 119.925 5V7.904C120.133 7.904 120.501 7.904 121.029 7.904C121.573 7.888 121.973 7.88 122.229 7.88C122.357 7.88 122.445 7.936 122.493 8.048C122.541 8.144 122.565 8.344 122.565 8.648C122.565 8.952 122.541 9.152 122.493 9.248C122.445 9.328 122.357 9.368 122.229 9.368C121.189 9.368 120.421 9.36 119.925 9.344V18.656C119.925 18.768 119.941 18.84 119.973 18.872C120.005 18.904 120.085 18.936 120.213 18.968L121.029 19.136ZM134.025 5.696C133.513 6.224 132.857 6.488 132.057 6.488C131.257 6.488 130.593 6.224 130.065 5.696C129.553 5.168 129.297 4.512 129.297 3.728C129.297 2.944 129.553 2.288 130.065 1.76C130.593 1.232 131.257 0.967999 132.057 0.967999C132.857 0.967999 133.513 1.232 134.025 1.76C134.553 2.288 134.817 2.944 134.817 3.728C134.817 4.512 134.553 5.168 134.025 5.696ZM127.857 20.168C127.729 20.168 127.665 20 127.665 19.664C127.665 19.328 127.729 19.152 127.857 19.136L128.673 18.968C128.865 18.936 128.961 18.824 128.961 18.632V12.32C128.961 12.208 128.945 12.136 128.913 12.104C128.881 12.072 128.801 12.04 128.673 12.008L127.857 11.864C127.729 11.848 127.665 11.696 127.665 11.408C127.665 11.152 127.729 11 127.857 10.952C129.713 10.232 131.721 9.128 133.881 7.64C133.961 7.592 134.025 7.568 134.073 7.568C134.169 7.568 134.297 7.608 134.457 7.688C134.617 7.768 134.697 7.848 134.697 7.928C134.697 7.992 134.681 8.24 134.649 8.672C134.617 9.104 134.585 9.704 134.553 10.472C134.521 11.24 134.505 12.056 134.505 12.92V18.632C134.505 18.824 134.601 18.936 134.793 18.968L135.609 19.136C135.737 19.152 135.801 19.328 135.801 19.664C135.801 20 135.737 20.168 135.609 20.168C135.529 20.168 135.033 20.136 134.121 20.072C133.225 20.024 132.433 20 131.745 20C131.057 20 130.257 20.024 129.345 20.072C128.433 20.136 127.937 20.168 127.857 20.168ZM149.747 20.888C149.747 22.136 149.044 23.216 147.636 24.128C146.228 25.056 144.22 25.52 141.612 25.52C139.5 25.52 137.972 25.336 137.028 24.968C136.083 24.616 135.611 24.088 135.611 23.384C135.611 22.792 136.396 22.264 137.964 21.8C138.156 21.736 138.308 21.688 138.42 21.656C136.98 21 136.26 19.904 136.26 18.368C136.26 18.176 136.284 18 136.332 17.84C136.38 17.68 136.46 17.536 136.572 17.408C136.7 17.264 136.812 17.144 136.908 17.048C137.02 16.936 137.188 16.824 137.412 16.712C137.652 16.584 137.852 16.488 138.012 16.424C138.172 16.344 138.42 16.232 138.756 16.088C139.092 15.928 139.356 15.8 139.548 15.704C138.732 15.336 138.068 14.84 137.556 14.216C137.06 13.592 136.812 12.848 136.812 11.984C136.812 10.704 137.388 9.68 138.54 8.912C139.692 8.128 141.188 7.736 143.028 7.736C143.924 7.736 144.812 7.92 145.692 8.288C147.532 8.208 148.812 8.168 149.532 8.168C149.692 8.168 149.796 8.192 149.844 8.24C149.892 8.272 149.916 8.368 149.916 8.528C149.916 9.36 149.788 9.776 149.532 9.776C149.228 9.776 148.564 9.728 147.54 9.632C148.084 10.272 148.356 11.032 148.356 11.912C148.356 13.208 147.772 14.256 146.604 15.056C145.452 15.856 143.964 16.256 142.14 16.256C141.548 16.256 140.98 16.176 140.436 16.016C139.988 16.128 139.764 16.392 139.764 16.808C139.764 17.08 139.916 17.28 140.22 17.408C140.524 17.52 141.092 17.576 141.924 17.576H144.084C145.844 17.576 147.228 17.872 148.236 18.464C149.244 19.056 149.747 19.864 149.747 20.888ZM141.108 9.584C141.108 10.912 141.38 12.224 141.924 13.52C142.484 14.816 142.98 15.464 143.412 15.464C143.652 15.464 143.82 15.392 143.916 15.248C144.012 15.104 144.06 14.824 144.06 14.408C144.06 13.096 143.78 11.792 143.22 10.496C142.676 9.184 142.188 8.528 141.756 8.528C141.516 8.528 141.348 8.6 141.252 8.744C141.156 8.888 141.108 9.168 141.108 9.584ZM139.068 22.832C139.068 23.344 139.412 23.768 140.1 24.104C140.788 24.456 141.708 24.632 142.86 24.632C143.884 24.632 144.676 24.512 145.236 24.272C145.812 24.032 146.1 23.736 146.1 23.384C146.1 23.128 146.012 22.92 145.836 22.76C145.676 22.6 145.308 22.464 144.732 22.352C144.172 22.24 143.396 22.184 142.404 22.184H141.084C140.46 22.184 139.916 22.128 139.452 22.016C139.196 22.224 139.068 22.496 139.068 22.832ZM166.316 19.136C166.444 19.152 166.508 19.328 166.508 19.664C166.508 20 166.444 20.168 166.316 20.168C166.236 20.168 165.74 20.136 164.828 20.072C163.932 20.024 163.14 20 162.452 20C161.764 20 160.988 20.024 160.124 20.072C159.276 20.136 158.812 20.168 158.732 20.168C158.604 20.168 158.54 20 158.54 19.664C158.54 19.36 158.604 19.184 158.732 19.136L159.38 18.968C159.508 18.936 159.588 18.904 159.62 18.872C159.652 18.824 159.668 18.744 159.668 18.632V13.904C159.668 12.784 159.508 12 159.188 11.552C158.884 11.104 158.332 10.88 157.532 10.88C157.292 10.88 157.116 10.904 157.004 10.952V18.632C157.004 18.744 157.02 18.824 157.052 18.872C157.084 18.904 157.164 18.936 157.292 18.968L157.94 19.136C158.068 19.184 158.132 19.36 158.132 19.664C158.132 20 158.068 20.168 157.94 20.168C157.86 20.168 157.396 20.136 156.548 20.072C155.7 20.024 154.932 20 154.244 20C153.556 20 152.756 20.024 151.844 20.072C150.932 20.136 150.436 20.168 150.356 20.168C150.228 20.168 150.164 20 150.164 19.664C150.164 19.328 150.228 19.152 150.356 19.136L151.172 18.968C151.364 18.936 151.46 18.824 151.46 18.632V6.272C151.46 6.16 151.444 6.088 151.412 6.056C151.38 6.024 151.3 5.992 151.172 5.96L150.356 5.816C150.228 5.8 150.164 5.648 150.164 5.36C150.164 5.104 150.228 4.952 150.356 4.904C152.212 4.184 154.22 3.08 156.38 1.592C156.46 1.544 156.524 1.52 156.572 1.52C156.668 1.52 156.796 1.56 156.956 1.64C157.116 1.72 157.196 1.8 157.196 1.88C157.196 1.944 157.18 2.192 157.148 2.624C157.116 3.056 157.084 3.656 157.052 4.424C157.02 5.192 157.004 6.008 157.004 6.872V10.208C157.404 9.504 157.964 8.912 158.684 8.432C159.404 7.952 160.22 7.712 161.132 7.712C162.396 7.712 163.388 8.072 164.108 8.792C164.844 9.512 165.212 10.52 165.212 11.816V18.632C165.212 18.824 165.308 18.936 165.5 18.968L166.316 19.136ZM176.255 17.36C175.935 18.176 175.367 18.888 174.551 19.496C173.735 20.088 172.799 20.384 171.743 20.384C170.495 20.384 169.543 20.016 168.887 19.28C168.231 18.528 167.903 17.496 167.903 16.184V9.608C167.903 9.496 167.887 9.424 167.855 9.392C167.823 9.36 167.743 9.328 167.615 9.296L166.751 9.176C166.623 9.16 166.559 9 166.559 8.696C166.559 8.36 166.623 8.184 166.751 8.168C167.983 7.88 168.999 7.504 169.799 7.04C170.599 6.576 171.399 5.928 172.199 5.096C172.327 4.968 172.511 4.904 172.751 4.904C173.055 4.904 173.215 4.968 173.231 5.096C173.327 5.832 173.391 6.768 173.423 7.904C173.647 7.904 174.087 7.904 174.743 7.904C175.399 7.888 175.863 7.88 176.135 7.88C176.263 7.88 176.351 7.936 176.399 8.048C176.447 8.144 176.471 8.344 176.471 8.648C176.471 8.952 176.447 9.152 176.399 9.248C176.351 9.328 176.263 9.368 176.135 9.368C174.887 9.368 173.991 9.36 173.447 9.344V14.096C173.447 15.152 173.575 15.88 173.831 16.28C174.103 16.68 174.519 16.88 175.079 16.88C175.191 16.88 175.311 16.856 175.439 16.808C175.567 16.76 175.647 16.736 175.679 16.736C175.823 16.736 175.967 16.816 176.111 16.976C176.255 17.12 176.303 17.248 176.255 17.36ZM189.607 16.304C189.127 17.504 188.287 18.488 187.087 19.256C185.887 20.008 184.631 20.384 183.319 20.384C181.495 20.384 179.983 19.816 178.783 18.68C177.583 17.528 176.983 16.016 176.983 14.144C176.983 12.224 177.639 10.672 178.951 9.488C180.279 8.304 182.015 7.712 184.159 7.712C185.903 7.712 187.255 8.088 188.215 8.84C189.191 9.592 189.679 10.56 189.679 11.744C189.679 12.048 189.663 12.256 189.631 12.368C189.599 12.48 189.511 12.536 189.367 12.536C187.015 12.648 184.711 12.672 182.455 12.608C182.839 13.888 183.399 14.896 184.135 15.632C184.903 16.4 185.711 16.784 186.559 16.784C187.375 16.784 188.151 16.456 188.887 15.8C188.999 15.704 189.159 15.736 189.367 15.896C189.575 16.04 189.655 16.176 189.607 16.304ZM182.143 10.568C182.143 10.984 182.199 11.488 182.311 12.08L183.079 11.984C184.151 11.872 184.687 11.16 184.687 9.848C184.687 8.92 184.335 8.456 183.631 8.456C183.231 8.456 182.879 8.64 182.575 9.008C182.287 9.376 182.143 9.896 182.143 10.568ZM199.258 19.136C199.386 19.152 199.45 19.328 199.45 19.664C199.45 20 199.386 20.168 199.258 20.168C199.242 20.168 198.722 20.136 197.698 20.072C196.674 20.024 195.666 20 194.674 20C193.986 20 193.186 20.024 192.274 20.072C191.362 20.136 190.866 20.168 190.786 20.168C190.658 20.168 190.594 20 190.594 19.664C190.594 19.328 190.658 19.152 190.786 19.136L191.602 18.968C191.698 18.952 191.762 18.936 191.794 18.92C191.826 18.904 191.85 18.88 191.866 18.848C191.882 18.8 191.89 18.736 191.89 18.656V12.32C191.89 12.208 191.874 12.136 191.842 12.104C191.81 12.072 191.73 12.04 191.602 12.008L190.786 11.864C190.658 11.848 190.594 11.696 190.594 11.408C190.594 11.152 190.658 11 190.786 10.952C192.418 10.312 194.338 9.208 196.546 7.64C196.61 7.592 196.674 7.568 196.738 7.568C196.834 7.568 196.962 7.608 197.122 7.688C197.282 7.768 197.362 7.848 197.362 7.928C197.362 7.96 197.346 8.464 197.314 9.44C197.282 10.4 197.266 11.192 197.266 11.816C197.634 10.616 198.138 9.632 198.778 8.864C199.418 8.096 200.09 7.712 200.794 7.712C201.482 7.712 202.002 7.936 202.354 8.384C202.706 8.832 202.882 9.408 202.882 10.112C202.882 11.168 202.626 12 202.114 12.608C201.618 13.216 201.058 13.52 200.434 13.52C200.05 13.52 199.61 13.352 199.114 13.016C198.522 12.6 198.066 12.392 197.746 12.392C197.586 12.392 197.482 12.416 197.434 12.464V18.656C197.434 18.848 197.53 18.952 197.722 18.968L199.258 19.136Z" fill="black"/>
</svg>
